<svg width="32" height="29" viewBox="0 0 32 29" fill="none" xmlns="http://www.w3.org/2000/svg">
<path d="M24.36 7.25008C25.7067 9.87217 25.4 12.9655 23.92 15.4788C22.6667 17.5209 20.8667 19.2488 19.3334 21.1459C18.6667 21.9917 18 22.898 17.5067 23.8767C17.3334 24.203 17.2134 24.5413 17.08 24.8797C16.9467 25.218 16.8267 25.5563 16.7067 25.8947C16.5867 26.2088 16.44 26.5834 16 26.5834C15.48 26.5834 15.3334 26.0517 15.2267 25.6892C14.9067 24.8072 14.5867 23.9613 14.0934 23.1517C13.5334 22.1972 12.8267 21.3151 12.1067 20.4572L24.36 7.25008ZM12.16 10.1742L7.76002 14.9109C8.57336 16.4697 9.78669 17.7988 10.9467 19.128C11.2267 19.4301 11.5067 19.7442 11.7734 20.0705L17.3334 14.1013L17.28 14.1134C15.3334 14.7176 13.1734 13.8234 12.4 12.0834C12.2934 11.878 12.2134 11.6363 12.16 11.3947C12.0854 10.9947 12.0854 10.5863 12.16 10.1863V10.1742ZM8.77336 5.58258L8.76002 5.59467C6.60002 8.07175 6.22669 11.5155 7.52002 14.4276L12.84 8.70008L12.7734 8.63967L8.77336 5.58258ZM18.96 2.85175L14.6667 7.4555L14.72 7.44341C16.5067 6.88758 18.5067 7.58841 19.4134 9.06258C19.6134 9.40092 19.7734 9.76341 19.8267 10.1259C19.9067 10.5851 19.9334 10.9113 19.84 11.3584V11.3705L24.1067 6.77883C22.9902 4.94232 21.1608 3.5471 18.9734 2.86383L18.96 2.85175ZM13.1867 8.3255L18.4 2.70675L18.3467 2.69466C17.5734 2.51341 16.7867 2.41675 16 2.41675C13.3734 2.41675 10.8934 3.44383 9.13336 5.208L9.10669 5.22008L13.1867 8.3255Z" fill="black"/>
</svg>
